<svg width="163" height="59" viewBox="0 0 163 59" fill="none" xmlns="http://www.w3.org/2000/svg">
<path d="M0.421621 56.7456V57.9973H0V54.8H1.17922C1.52911 54.8 1.80287 54.8893 2.00051 55.0679C2.1996 55.2465 2.29915 55.483 2.29915 55.7772C2.29915 56.0876 2.2018 56.3269 2.00709 56.4953C1.81385 56.6622 1.53643 56.7456 1.17483 56.7456H0.421621ZM0.421621 56.4009H1.17922C1.40467 56.4009 1.57742 56.3482 1.69746 56.2428C1.81751 56.1359 1.87753 55.9822 1.87753 55.7816C1.87753 55.5913 1.81751 55.439 1.69746 55.3249C1.57742 55.2107 1.41272 55.1514 1.20338 55.147H0.421621V56.4009ZM5.04628 55.147H4.01858V57.9973H3.59915V55.147H2.57365V54.8H5.04628V55.147ZM5.94222 56.7456V57.9973H5.5206V54.8H6.69983C7.04971 54.8 7.32347 54.8893 7.52111 55.0679C7.72021 55.2465 7.81976 55.483 7.81976 55.7772C7.81976 56.0876 7.7224 56.3269 7.5277 56.4953C7.33445 56.6622 7.05703 56.7456 6.69543 56.7456H5.94222ZM5.94222 56.4009H6.69983C6.92528 56.4009 7.09802 56.3482 7.21807 56.2428C7.33811 56.1359 7.39814 55.9822 7.39814 55.7816C7.39814 55.5913 7.33811 55.439 7.21807 55.3249C7.09802 55.2107 6.93333 55.1514 6.72398 55.147H5.94222V56.4009ZM9.82026 57.1629H8.48074L8.17989 57.9973H7.7451L8.96604 54.8H9.33496L10.5581 57.9973H10.1255L9.82026 57.1629ZM8.6081 56.8159H9.69509L9.1505 55.3205L8.6081 56.8159ZM12.1611 56.7039H11.4101V57.9973H10.9863V54.8H12.0448C12.4049 54.8 12.6816 54.882 12.8748 55.046C13.0695 55.2099 13.1669 55.4486 13.1669 55.7618C13.1669 55.9609 13.1127 56.1344 13.0044 56.2823C12.8975 56.4301 12.7482 56.5407 12.5564 56.6139L13.3074 57.971V57.9973H12.8551L12.1611 56.7039ZM11.4101 56.3591H12.0579C12.2673 56.3591 12.4334 56.305 12.5564 56.1966C12.6808 56.0883 12.7431 55.9434 12.7431 55.7618C12.7431 55.5642 12.6838 55.4127 12.5652 55.3073C12.4481 55.2019 12.2783 55.1484 12.0557 55.147H11.4101V56.3591ZM14.9302 56.7039H14.1792V57.9973H13.7554V54.8H14.8138C15.174 54.8 15.4507 54.882 15.6439 55.046C15.8386 55.2099 15.936 55.4486 15.936 55.7618C15.936 55.9609 15.8818 56.1344 15.7735 56.2823C15.6666 56.4301 15.5173 56.5407 15.3255 56.6139L16.0765 57.971V57.9973H15.6241L14.9302 56.7039ZM14.1792 56.3591H14.827C15.0364 56.3591 15.2025 56.305 15.3255 56.1966C15.4499 56.0883 15.5121 55.9434 15.5121 55.7618C15.5121 55.5642 15.4529 55.4127 15.3343 55.3073C15.2172 55.2019 15.0473 55.1484 14.8248 55.147H14.1792V56.3591ZM18.2922 57.1629H16.9527L16.6518 57.9973H16.217L17.438 54.8H17.8069L19.0301 57.9973H18.5975L18.2922 57.1629ZM17.0801 56.8159H18.167L17.6225 55.3205L17.0801 56.8159ZM20.9954 56.7456V57.9973H20.5738V54.8H21.753C22.1029 54.8 22.3767 54.8893 22.5743 55.0679C22.7734 55.2465 22.873 55.483 22.873 55.7772C22.873 56.0876 22.7756 56.3269 22.5809 56.4953C22.3877 56.6622 22.1102 56.7456 21.7486 56.7456H20.9954ZM20.9954 56.4009H21.753C21.9785 56.4009 22.1512 56.3482 22.2713 56.2428C22.3913 56.1359 22.4513 55.9822 22.4513 55.7816C22.4513 55.5913 22.3913 55.439 22.2713 55.3249C22.1512 55.2107 21.9865 55.1514 21.7772 55.147H20.9954V56.4009ZM25.8682 57.9973H25.4444V56.5194H23.8326V57.9973H23.411V54.8H23.8326V56.1747H25.4444V54.8H25.8682V57.9973ZM29.0765 56.5019C29.0765 56.8152 29.0238 57.0889 28.9184 57.3232C28.813 57.5559 28.6637 57.7338 28.4704 57.8568C28.2772 57.9798 28.0517 58.0412 27.7941 58.0412C27.5423 58.0412 27.319 57.9798 27.1243 57.8568C26.9296 57.7323 26.7781 57.5559 26.6697 57.3276C26.5629 57.0977 26.508 56.832 26.505 56.5304V56.2999C26.505 55.9924 26.5585 55.7209 26.6654 55.4852C26.7722 55.2495 26.923 55.0694 27.1177 54.945C27.3139 54.8191 27.5379 54.7561 27.7897 54.7561C28.0459 54.7561 28.2713 54.8183 28.466 54.9428C28.6622 55.0657 28.813 55.2451 28.9184 55.4808C29.0238 55.715 29.0765 55.988 29.0765 56.2999V56.5019ZM28.6571 56.2955C28.6571 55.9163 28.5809 55.6257 28.4287 55.4237C28.2764 55.2202 28.0634 55.1184 27.7897 55.1184C27.5232 55.1184 27.3132 55.2202 27.1594 55.4237C27.0072 55.6257 26.9289 55.9068 26.9245 56.2669V56.5019C26.9245 56.8693 27.0013 57.1585 27.155 57.3693C27.3102 57.5786 27.5232 57.6833 27.7941 57.6833C28.0664 57.6833 28.2772 57.5845 28.4265 57.3868C28.5758 57.1877 28.6527 56.903 28.6571 56.5326V56.2955ZM31.8588 55.147H30.8311V57.9973H30.4116V55.147H29.3861V54.8H31.8588V55.147ZM34.7311 56.5019C34.7311 56.8152 34.6783 57.0889 34.5729 57.3232C34.4675 57.5559 34.3182 57.7338 34.125 57.8568C33.9317 57.9798 33.7063 58.0412 33.4486 58.0412C33.1968 58.0412 32.9736 57.9798 32.7789 57.8568C32.5842 57.7323 32.4326 57.5559 32.3243 57.3276C32.2174 57.0977 32.1625 56.832 32.1596 56.5304V56.2999C32.1596 55.9924 32.213 55.7209 32.3199 55.4852C32.4268 55.2495 32.5776 55.0694 32.7723 54.945C32.9684 54.8191 33.1924 54.7561 33.4442 54.7561C33.7004 54.7561 33.9259 54.8183 34.1206 54.9428C34.3167 55.0657 34.4675 55.2451 34.5729 55.4808C34.6783 55.715 34.7311 55.988 34.7311 56.2999V56.5019ZM34.3116 56.2955C34.3116 55.9163 34.2355 55.6257 34.0833 55.4237C33.931 55.2202 33.718 55.1184 33.4442 55.1184C33.1778 55.1184 32.9677 55.2202 32.814 55.4237C32.6617 55.6257 32.5834 55.9068 32.579 56.2669V56.5019C32.579 56.8693 32.6559 57.1585 32.8096 57.3693C32.9648 57.5786 33.1778 57.6833 33.4486 57.6833C33.7209 57.6833 33.9317 57.5845 34.0811 57.3868C34.2304 57.1877 34.3072 56.903 34.3116 56.5326V56.2955ZM36.3055 56.5721C35.9439 56.4682 35.6804 56.3408 35.515 56.1901C35.351 56.0378 35.2691 55.8504 35.2691 55.6279C35.2691 55.3761 35.3693 55.1682 35.5699 55.0042C35.7719 54.8388 36.034 54.7561 36.3561 54.7561C36.5756 54.7561 36.7711 54.7986 36.9424 54.8835C37.1151 54.9684 37.2483 55.0855 37.342 55.2348C37.4372 55.3841 37.4848 55.5474 37.4848 55.7245H37.061C37.061 55.5313 36.9995 55.3798 36.8765 55.27C36.7535 55.1587 36.58 55.1031 36.3561 55.1031C36.1482 55.1031 35.9857 55.1492 35.8686 55.2414C35.7529 55.3322 35.6951 55.4588 35.6951 55.6213C35.6951 55.7516 35.75 55.8621 35.8598 55.9529C35.971 56.0422 36.1592 56.1242 36.4241 56.1988C36.6906 56.2735 36.8985 56.3562 37.0478 56.447C37.1986 56.5363 37.3098 56.641 37.3816 56.761C37.4548 56.881 37.4914 57.0223 37.4914 57.1848C37.4914 57.4439 37.3903 57.6518 37.1883 57.8085C36.9863 57.9636 36.7162 58.0412 36.378 58.0412C36.1584 58.0412 35.9535 57.9995 35.7631 57.9161C35.5728 57.8312 35.4257 57.7155 35.3218 57.5691C35.2193 57.4227 35.168 57.2566 35.168 57.0706H35.5919C35.5919 57.2639 35.6629 57.4169 35.8049 57.5296C35.9483 57.6408 36.1394 57.6965 36.378 57.6965C36.6005 57.6965 36.7711 57.6511 36.8897 57.5603C37.0082 57.4696 37.0675 57.3459 37.0675 57.1892C37.0675 57.0326 37.0126 56.9118 36.9028 56.8269C36.793 56.7405 36.5939 56.6556 36.3055 56.5721ZM41.5055 57.5779C41.3972 57.7331 41.2457 57.8495 41.051 57.927C40.8577 58.0032 40.6323 58.0412 40.3746 58.0412C40.114 58.0412 39.8827 57.9805 39.6807 57.859C39.4787 57.736 39.322 57.5618 39.2108 57.3363C39.101 57.1109 39.0446 56.8496 39.0417 56.5524V56.2735C39.0417 55.7919 39.1537 55.4185 39.3777 55.1536C39.6031 54.8886 39.9193 54.7561 40.3263 54.7561C40.6601 54.7561 40.9287 54.8417 41.1322 55.013C41.3357 55.1828 41.4602 55.4244 41.5055 55.7377H41.0839C41.0049 55.3146 40.7531 55.1031 40.3285 55.1031C40.046 55.1031 39.8315 55.2026 39.6851 55.4017C39.5402 55.5993 39.467 55.8863 39.4655 56.2625V56.5238C39.4655 56.8825 39.5475 57.168 39.7115 57.3803C39.8754 57.5911 40.0972 57.6965 40.3768 57.6965C40.5349 57.6965 40.6733 57.6789 40.7919 57.6438C40.9104 57.6086 41.0085 57.5493 41.0861 57.4659V56.7478H40.3461V56.4053H41.5055V57.5779ZM43.9738 57.1629H42.6343L42.3334 57.9973H41.8986L43.1196 54.8H43.4885L44.7116 57.9973H44.279L43.9738 57.1629ZM42.7616 56.8159H43.8486L43.304 55.3205L42.7616 56.8159ZM45.5658 57.6526H47.081V57.9973H45.142V54.8H45.5658V57.6526ZM49.3692 56.5194H47.9836V57.6526H49.5932V57.9973H47.562V54.8H49.5712V55.147H47.9836V56.1747H49.3692V56.5194ZM51.2907 56.7039H50.5397V57.9973H50.1158V54.8H51.1743C51.5344 54.8 51.8111 54.882 52.0044 55.046C52.1991 55.2099 52.2964 55.4486 52.2964 55.7618C52.2964 55.9609 52.2422 56.1344 52.1339 56.2823C52.027 56.4301 51.8777 56.5407 51.6859 56.6139L52.437 57.971V57.9973H51.9846L51.2907 56.7039ZM50.5397 56.3591H51.1875C51.3968 56.3591 51.563 56.305 51.6859 56.1966C51.8104 56.0883 51.8726 55.9434 51.8726 55.7618C51.8726 55.5642 51.8133 55.4127 51.6947 55.3073C51.5776 55.2019 51.4078 55.1484 51.1853 55.147H50.5397V56.3591ZM53.7567 56.4053L54.5912 54.8H55.0699L53.9675 56.8049V57.9973H53.5459V56.8049L52.4435 54.8H52.9266L53.7567 56.4053ZM57.5381 56.5721C57.1765 56.4682 56.913 56.3408 56.7476 56.1901C56.5836 56.0378 56.5016 55.8504 56.5016 55.6279C56.5016 55.3761 56.6019 55.1682 56.8025 55.0042C57.0045 54.8388 57.2666 54.7561 57.5886 54.7561C57.8082 54.7561 58.0037 54.7986 58.175 54.8835C58.3477 54.9684 58.4809 55.0855 58.5746 55.2348C58.6698 55.3841 58.7174 55.5474 58.7174 55.7245H58.2935C58.2935 55.5313 58.2321 55.3798 58.1091 55.27C57.9861 55.1587 57.8126 55.1031 57.5886 55.1031C57.3808 55.1031 57.2183 55.1492 57.1011 55.2414C56.9855 55.3322 56.9277 55.4588 56.9277 55.6213C56.9277 55.7516 56.9826 55.8621 57.0924 55.9529C57.2036 56.0422 57.3917 56.1242 57.6567 56.1988C57.9232 56.2735 58.131 56.3562 58.2804 56.447C58.4311 56.5363 58.5424 56.641 58.6141 56.761C58.6873 56.881 58.7239 57.0223 58.7239 57.1848C58.7239 57.4439 58.6229 57.6518 58.4209 57.8085C58.2189 57.9636 57.9488 58.0412 57.6106 58.0412C57.391 58.0412 57.1861 57.9995 56.9957 57.9161C56.8054 57.8312 56.6583 57.7155 56.5543 57.5691C56.4519 57.4227 56.4006 57.2566 56.4006 57.0706H56.8244C56.8244 57.2639 56.8955 57.4169 57.0375 57.5296C57.1809 57.6408 57.372 57.6965 57.6106 57.6965C57.8331 57.6965 58.0037 57.6511 58.1223 57.5603C58.2408 57.4696 58.3001 57.3459 58.3001 57.1892C58.3001 57.0326 58.2452 56.9118 58.1354 56.8269C58.0256 56.7405 57.8265 56.6556 57.5381 56.5721ZM61.0714 56.5194H59.6858V57.6526H61.2954V57.9973H59.2641V54.8H61.2734V55.147H59.6858V56.1747H61.0714V56.5194ZM63.5858 57.1629H62.2462L61.9454 57.9973H61.5106L62.7315 54.8H63.1005L64.3236 57.9973H63.891L63.5858 57.1629ZM62.3736 56.8159H63.4606L62.916 55.3205L62.3736 56.8159ZM65.9266 56.7039H65.1756V57.9973H64.7518V54.8H65.8103C66.1704 54.8 66.4471 54.882 66.6403 55.046C66.835 55.2099 66.9324 55.4486 66.9324 55.7618C66.9324 55.9609 66.8782 56.1344 66.7699 56.2823C66.663 56.4301 66.5137 56.5407 66.3219 56.6139L67.0729 57.971V57.9973H66.6206L65.9266 56.7039ZM65.1756 56.3591H65.8234C66.0328 56.3591 66.1989 56.305 66.3219 56.1966C66.4463 56.0883 66.5086 55.9434 66.5086 55.7618C66.5086 55.5642 66.4493 55.4127 66.3307 55.3073C66.2136 55.2019 66.0438 55.1484 65.8212 55.147H65.1756V56.3591ZM69.8749 56.9828C69.8354 57.321 69.7103 57.5823 69.4994 57.7667C69.2901 57.9497 69.0112 58.0412 68.6628 58.0412C68.2851 58.0412 67.982 57.9058 67.7537 57.635C67.5267 57.3642 67.4133 57.0018 67.4133 56.548V56.2406C67.4133 55.9434 67.466 55.6821 67.5714 55.4566C67.6783 55.2312 67.8291 55.0584 68.0238 54.9384C68.2185 54.8169 68.4439 54.7561 68.7001 54.7561C69.0398 54.7561 69.312 54.8513 69.517 55.0416C69.722 55.2304 69.8413 55.4925 69.8749 55.8277H69.4511C69.4145 55.573 69.3347 55.3885 69.2118 55.2743C69.0903 55.1602 68.9197 55.1031 68.7001 55.1031C68.4307 55.1031 68.2192 55.2026 68.0655 55.4017C67.9132 55.6008 67.8371 55.8841 67.8371 56.2515V56.5612C67.8371 56.9081 67.9096 57.1841 68.0545 57.389C68.1994 57.594 68.4022 57.6965 68.6628 57.6965C68.897 57.6965 69.0764 57.6438 69.2008 57.5384C69.3267 57.4315 69.4101 57.2463 69.4511 56.9828H69.8749ZM72.9075 57.9973H72.4837V56.5194H70.8719V57.9973H70.4503V54.8H70.8719V56.1747H72.4837V54.8H72.9075V57.9973ZM75.4636 56.5194H74.078V57.6526H75.6876V57.9973H73.6564V54.8H75.6656V55.147H74.078V56.1747H75.4636V56.5194ZM77.3851 56.7039H76.6341V57.9973H76.2102V54.8H77.2687C77.6288 54.8 77.9055 54.882 78.0988 55.046C78.2935 55.2099 78.3908 55.4486 78.3908 55.7618C78.3908 55.9609 78.3367 56.1344 78.2283 56.2823C78.1215 56.4301 77.9721 56.5407 77.7803 56.6139L78.5314 57.971V57.9973H78.079L77.3851 56.7039ZM76.6341 56.3591H77.2819C77.4912 56.3591 77.6574 56.305 77.7803 56.1966C77.9048 56.0883 77.967 55.9434 77.967 55.7618C77.967 55.5642 77.9077 55.4127 77.7891 55.3073C77.672 55.2019 77.5022 55.1484 77.2797 55.147H76.6341V56.3591Z" fill="#F52626"/>
<path d="M6.37316 29.8368V48.6083H0.0501251V0.65865H17.7349C22.9821 0.65865 27.0877 1.99792 30.0516 4.67641C33.0375 7.35494 34.5304 10.9007 34.5304 15.3136C34.5304 19.9681 33.0704 23.5577 30.1504 26.0825C27.2523 28.5854 23.0919 29.8368 17.669 29.8368H6.37316ZM6.37316 24.6664H17.7349C21.1159 24.6664 23.7066 23.876 25.5069 22.2953C27.3072 20.6926 28.2074 18.3873 28.2074 15.3795C28.2074 12.5253 27.3072 10.242 25.5069 8.52951C23.7066 6.81703 21.2367 5.92785 18.0971 5.86198H6.37316V24.6664ZM48.9219 29.8368V48.6083H42.5989V0.65865H60.2836C65.5309 0.65865 69.6364 1.99792 72.6004 4.67641C75.5862 7.35494 77.0792 10.9007 77.0792 15.3136C77.0792 19.9681 75.6192 23.5577 72.6992 26.0825C69.8011 28.5854 65.6406 29.8368 60.2178 29.8368H48.9219ZM48.9219 24.6664H60.2836C63.6647 24.6664 66.2554 23.876 68.0557 22.2953C69.856 20.6926 70.7561 18.3873 70.7561 15.3795C70.7561 12.5253 69.856 10.242 68.0557 8.52951C66.2554 6.81703 63.7854 5.92785 60.6459 5.86198H48.9219V24.6664ZM120.55 42.3182C118.925 44.6454 116.653 46.3909 113.733 47.5545C110.835 48.6962 107.454 49.267 103.59 49.267C99.6818 49.267 96.2129 48.3559 93.1832 46.5336C90.1534 44.6894 87.8042 42.0767 86.1356 38.6957C84.489 35.3146 83.6437 31.3956 83.5998 26.9388V22.7563C83.5998 15.5332 85.2794 9.93464 88.6385 5.96078C92.0195 1.98691 96.7618 0 102.865 0C107.871 0 111.9 1.28435 114.952 3.8531C118.003 6.39989 119.869 10.0225 120.55 14.7208H114.227C113.041 8.37582 109.265 5.20333 102.898 5.20333C98.6609 5.20333 95.4445 6.69625 93.249 9.68215C91.0755 12.646 89.9777 16.9492 89.9558 22.5917V26.5106C89.9558 31.8896 91.1853 36.1708 93.6442 39.3543C96.1032 42.5158 99.4294 44.0966 103.623 44.0966C105.994 44.0966 108.069 43.8331 109.847 43.3062C111.625 42.7793 113.096 41.8901 114.26 40.6387V29.8698H103.162V24.7323H120.55V42.3182ZM145.216 27.2352C139.794 25.6763 135.842 23.7663 133.361 21.5049C130.902 19.2216 129.672 16.4114 129.672 13.0742C129.672 9.29795 131.176 6.18033 134.184 3.72137C137.214 1.24045 141.144 0 145.974 0C149.267 0 152.198 0.636671 154.767 1.91008C157.358 3.18346 159.355 4.93986 160.761 7.17928C162.188 9.41866 162.901 11.8666 162.901 14.5232H156.545C156.545 11.6252 155.623 9.35281 153.779 7.7062C151.935 6.03759 149.333 5.20333 145.974 5.20333C142.856 5.20333 140.419 5.89492 138.663 7.27808C136.928 8.63932 136.061 10.5384 136.061 12.9754C136.061 14.9294 136.885 16.587 138.531 17.9482C140.2 19.2874 143.021 20.5169 146.995 21.6366C150.991 22.7563 154.108 23.9968 156.348 25.358C158.609 26.6973 160.278 28.267 161.353 30.0674C162.451 31.8677 163 33.9863 163 36.4233C163 40.3094 161.485 43.427 158.455 45.7761C155.426 48.1034 151.375 49.267 146.303 49.267C143.01 49.267 139.936 48.6413 137.082 47.3898C134.228 46.1165 132.022 44.382 130.463 42.1865C128.926 39.991 128.157 37.4991 128.157 34.7108H134.513C134.513 37.6089 135.578 39.9032 137.708 41.5937C139.859 43.2623 142.725 44.0966 146.303 44.0966C149.64 44.0966 152.198 43.416 153.977 42.0548C155.755 40.6936 156.644 38.8384 156.644 36.4892C156.644 34.14 155.821 32.3287 154.174 31.0553C152.527 29.76 149.542 28.4866 145.216 27.2352Z" fill="white"/>
</svg>
